<svg xmlns="http://www.w3.org/2000/svg" version="1.1" xmlns:xlink="http://www.w3.org/1999/xlink" xmlns:svgjs="http://svgjs.com/svgjs" width="1440" height="560" preserveAspectRatio="none" viewBox="0 0 1440 560"><g mask="url(&quot;#SvgjsMask1417&quot;)" fill="none"><rect width="1440" height="560" x="0" y="0" fill="rgba(0, 133, 255, 1)"></rect><path d="M1440 0L729.11 0L1440 270.89z" fill="rgba(255, 255, 255, .1)"></path><path d="M729.11 0L1440 270.89L1440 376.21999999999997L478.01 0z" fill="rgba(255, 255, 255, .075)"></path><path d="M478.01 0L1440 376.21999999999997L1440 481.33L336.53999999999996 0z" fill="rgba(255, 255, 255, .05)"></path><path d="M336.53999999999996 0L1440 481.33L1440 492.71999999999997L248.67999999999995 0z" fill="rgba(255, 255, 255, .025)"></path><path d="M0 560L204.09 560L0 306.36z" fill="rgba(0, 0, 0, .1)"></path><path d="M0 306.36L204.09 560L449.77 560L0 180.23000000000002z" fill="rgba(0, 0, 0, .075)"></path><path d="M0 180.23000000000002L449.77 560L698.23 560L0 128.04000000000002z" fill="rgba(0, 0, 0, .05)"></path><path d="M0 128.04000000000002L698.23 560L1039.03 560L0 114.80000000000003z" fill="rgba(0, 0, 0, .025)"></path></g><defs><mask id="SvgjsMask1417"><rect width="1440" height="560" fill="#ffffff"></rect></mask></defs></svg>